<svg version="1.2" xmlns="http://www.w3.org/2000/svg" viewBox="0 0 408 408" width="408" height="408">
	<title>LOGO-svg</title>
	<style>
		.s0 { fill: #060f28 } 
		.s1 { fill: #fdba23 } 
		.s2 { fill: #0054ff } 
		.s3 { fill: #02c1a1 } 
		.s4 { fill: #7bbaff } 
		.s5 { fill: #ff5b57 } 
	</style>
	<g id="Layer_2">
		<g id="Logos">
			<path id="Layer" class="s0" d="m597.5 77.6v32.9h-5v-34.1c-0.4-8-3.8-15.4-9.6-20.8-5.7-5.4-13.4-8.4-21.3-8.2-8 0.2-15.5 3.4-21 9.1-5.6 5.6-8.7 13.2-8.7 21.1v32.9h-5v-34.1c-0.4-8-3.8-15.4-9.6-20.9-5.8-5.4-13.5-8.3-21.5-8.1-7.9 0.2-15.4 3.5-21 9.2-5.5 5.7-8.6 13.3-8.6 21.2v32.7h-5v-65.6h5v14.7c3.3-5.6 8.1-10.1 13.9-13.2 5.7-3 12.2-4.5 18.6-4.1 6.5 0.4 12.8 2.6 18.1 6.3 5.4 3.7 9.6 8.8 12.2 14.7 5.7-11.9 20.4-20.9 33.3-20.9 4.6 0 9.2 0.9 13.4 2.7 4.3 1.7 8.2 4.3 11.5 7.6 3.2 3.3 5.8 7.2 7.6 11.5 1.8 4.2 2.7 8.8 2.7 13.4z"/>
			<path id="Layer" fill-rule="evenodd" class="s0" d="m682.2 77.1q0 0.3 0 0.6 0 0.4 0 0.7 0 0.3-0.1 0.6 0 0.3-0.1 0.7h-65.4c0.6 6.1 2.9 11.9 6.9 16.7 3.9 4.8 9.2 8.2 15.2 9.9 5.9 1.7 12.2 1.5 18-0.5 5.9-2 11-5.7 14.7-10.7l4.4 2.2q-2.4 3.5-5.6 6.3-3.2 2.8-7 4.8-3.8 2-7.9 3-4.1 1-8.4 1c-14 0-26.8-8.3-32.4-21.2-5.7-12.9-3.1-27.9 6.5-38.2 9.6-10.2 24.3-13.9 37.6-9.2 13.3 4.7 22.4 16.9 23.4 30.9q0.1 0.3 0.1 0.6 0 0.3 0.1 0.6 0 0.3 0 0.6 0 0.3 0 0.6zm-5.1-2.4c-0.6-7.6-4.1-14.7-9.7-19.9-5.6-5.1-12.9-8-20.6-8-7.6 0-14.9 2.9-20.5 8-5.6 5.2-9.1 12.3-9.7 19.9z"/>
			<path id="Layer" fill-rule="evenodd" class="s0" d="m761.2 77.1q0 0.3 0 0.6 0 0.4 0 0.7 0 0.3-0.1 0.6 0 0.3-0.1 0.7h-65.4c0.6 6.1 2.9 11.9 6.9 16.7 3.9 4.8 9.2 8.2 15.2 9.9 5.9 1.7 12.2 1.5 18-0.5 5.9-2 11-5.7 14.7-10.7l4.4 2.2q-2.4 3.5-5.6 6.3-3.2 2.8-7 4.8-3.8 2-7.9 3-4.1 1-8.4 1c-14 0-26.8-8.3-32.4-21.2-5.7-12.9-3.1-27.9 6.5-38.2 9.6-10.2 24.3-13.9 37.6-9.2 13.3 4.7 22.4 16.9 23.4 30.9q0.1 0.3 0.1 0.6 0 0.3 0.1 0.6 0 0.3 0 0.6 0 0.3 0 0.6zm-5.1-2.4c-0.6-7.6-4.1-14.7-9.7-19.9-5.6-5.1-12.9-8-20.6-8-7.6 0-14.9 2.9-20.5 8-5.6 5.2-9.1 12.3-9.7 19.9z"/>
			<path id="Layer" class="s0" d="m796.7 45.5h-12.7v65.4h-5.2v-65.4h-12.1v-5h12.1v-40.2h5.2v40.2h12.7z"/>
			<path id="Layer" class="s0" d="m472 164.5c0 1.5-0.8 2.8-2.2 3.4-1.3 0.6-2.9 0.3-3.9-0.8-1-1-1.3-2.6-0.8-3.9 0.6-1.4 2-2.2 3.4-2.2q0.7 0 1.3 0.3 0.7 0.3 1.1 0.8 0.5 0.5 0.8 1.1 0.3 0.6 0.3 1.3zm-6 14.5h5v65.4h-5z"/>
			<path id="Layer" class="s0" d="m551.4 244.6h-5v-34.2c-0.4-7.9-3.8-15.4-9.6-20.8-5.8-5.4-13.5-8.3-21.5-8.1-7.9 0.1-15.4 3.4-21 9.1-5.5 5.7-8.6 13.4-8.5 21.3v32.7h-5v-65.6h5v14.7c3.9-6.6 9.9-11.8 17.1-14.7 7.1-2.9 15.1-3.4 22.5-1.3 7.5 2 14 6.5 18.7 12.6 4.7 6.2 7.2 13.7 7.2 21.4z"/>
			<path id="Layer" class="s0" d="m631.7 244.6h-5v-34.2c-0.4-7.9-3.8-15.4-9.6-20.8-5.8-5.4-13.5-8.3-21.5-8.1-7.9 0.1-15.4 3.4-21 9.1-5.5 5.7-8.6 13.4-8.6 21.3v32.7h-5v-65.6h5v14.7c4-6.6 10-11.8 17.2-14.7 7.1-2.9 15-3.4 22.5-1.3 7.5 2 14 6.5 18.7 12.6 4.7 6.2 7.2 13.7 7.2 21.4z"/>
			<path id="Layer" fill-rule="evenodd" class="s0" d="m640.9 212.1c-0.1-14.3 8.5-27.1 21.7-32.6 13.2-5.5 28.4-2.5 38.5 7.6 10.1 10.1 13.1 25.3 7.6 38.5-5.4 13.2-18.3 21.8-32.6 21.8-4.6 0-9.2-1-13.5-2.7-4.2-1.8-8.1-4.4-11.4-7.7-3.3-3.2-5.9-7.1-7.7-11.4-1.7-4.3-2.6-8.9-2.6-13.5zm5 0c-0.1 12.3 7.3 23.3 18.7 28 11.3 4.7 24.3 2.1 33-6.6 8.7-8.6 11.3-21.7 6.6-33-4.7-11.3-15.8-18.7-28-18.7-4 0-8 0.7-11.6 2.3-3.7 1.5-7.1 3.7-9.9 6.5-2.8 2.9-5 6.2-6.6 9.9-1.5 3.7-2.3 7.6-2.3 11.6z"/>
			<path id="Layer" class="s0" d="m790.6 177l-32.2 68.5h-6.2l-32.2-68.5h6.1l29.2 62.3 29-62.3z"/>
			<path id="Layer" fill-rule="evenodd" class="s0" d="m867.8 179v65.6h-5.2v-14.7c-1.5 2.6-3.4 5-5.6 7.1-2.1 2.1-4.6 3.9-7.2 5.4-2.6 1.5-5.4 2.7-8.4 3.4-2.9 0.8-5.9 1.2-8.9 1.2-12.6 0.1-24.3-6.6-30.6-17.4-6.4-10.9-6.5-24.3-0.3-35.2 6.2-11 17.7-17.8 30.3-18 12.6-0.1 24.3 6.5 30.7 17.3v-14.7zm-5.1 32.7c-0.1-12.2-7.4-23.2-18.8-27.9-11.3-4.6-24.3-2-32.9 6.7-8.6 8.6-11.2 21.6-6.5 32.9 4.8 11.3 15.8 18.6 28 18.6 4 0 7.9-0.8 11.6-2.4 3.6-1.5 7-3.7 9.7-6.5 2.8-2.8 5.1-6.2 6.6-9.8 1.5-3.7 2.3-7.6 2.3-11.6z"/>
			<path id="Layer" class="s0" d="m905 179.8l-12.6-0.1v65.5h-5.2v-65.5h-12.1v-5h12.1v-40.1h5.2v40.2h12.6z"/>
			<path id="Layer" fill-rule="evenodd" class="s0" d="m984.8 211.3q0 0.4 0 0.7 0 0.3 0 0.6-0.1 0.4-0.1 0.7 0 0.3-0.1 0.6h-65.4c0.5 6.2 2.9 12 6.9 16.8 3.9 4.7 9.2 8.2 15.1 9.8 6 1.7 12.3 1.5 18.1-0.5 5.9-2 11-5.7 14.6-10.6l4.4 2.2q-2.4 3.5-5.5 6.3-3.2 2.8-7 4.8-3.8 1.9-7.9 3-4.1 1-8.4 0.9c-14.1 0.1-26.8-8.2-32.4-21.1-5.7-12.9-3.1-27.9 6.5-38.2 9.6-10.3 24.4-13.9 37.6-9.2 13.3 4.7 22.5 16.9 23.4 30.9q0.1 0.3 0.1 0.6 0 0.3 0.1 0.6 0 0.3 0 0.6 0 0.3 0 0.5zm-5.2-2.3c-0.6-7.6-4-14.7-9.6-19.8-5.6-5.2-13-8.1-20.6-8.1-7.6 0-14.9 2.9-20.5 8.1-5.6 5.1-9.1 12.2-9.7 19.8z"/>
			<path id="Layer" class="s0" d="m520.9 375.9c-6.1 4.4-15.8 5.2-23.3 5.2-9.5 0.1-18.6-3.5-25.4-10.1-6.7-6.7-10.5-15.7-10.5-25.2 0-9.5 3.8-18.5 10.5-25.2 6.8-6.6 15.9-10.2 25.3-10.1 7.6 0 16.6 1.3 22.6 5.7 0 0-1.1 1.3-3.3 3.5-4.5-2.7-14-4.2-19.2-4.2-8 0.1-15.6 3.4-21.1 9.1-5.6 5.6-8.7 13.2-8.7 21.2 0 7.9 3.1 15.6 8.7 21.2 5.5 5.7 13.1 9 21.1 9.1 5.3 0 14.7-1.5 19.2-4 2.2 2.2 4.1 3.8 4.1 3.8z"/>
			<path id="Layer" class="s0" d="m574.2 317.1l-3.7 3.5c-3.5-3.1-8.5-5.1-14.7-5.1-11.2 0-19.1 6.6-19.1 16.2v47h-5v-65.8h5v5.3c4.4-4.7 11.2-7.7 19.1-7.7 7.5 0 14 2.4 18.4 6.6z"/>
			<path id="Layer" fill-rule="evenodd" class="s0" d="m655.6 345.6q0 0.3 0 0.7 0 0.3-0.1 0.6 0 0.3 0 0.6-0.1 0.4-0.1 0.7h-65.4c0.5 6.1 2.9 12 6.9 16.7 3.9 4.8 9.2 8.2 15.2 9.9 5.9 1.7 12.2 1.5 18-0.5 5.9-2 11-5.7 14.7-10.7l4.4 2.2q-2.5 3.5-5.6 6.3-3.2 2.9-7 4.8-3.8 2-7.9 3-4.1 1-8.4 1c-14 0-26.8-8.3-32.4-21.2-5.6-12.8-3.1-27.8 6.5-38.1 9.6-10.3 24.4-13.9 37.6-9.2 13.3 4.7 22.5 16.8 23.4 30.8q0.1 0.3 0.1 0.6 0 0.3 0.1 0.6 0 0.3 0 0.6 0 0.3 0 0.6zm-5.2-2.4c-0.6-7.6-4-14.7-9.6-19.9-5.6-5.1-13-8-20.6-8-7.6 0-15 2.9-20.6 8-5.6 5.2-9 12.3-9.6 19.9z"/>
			<path id="Layer" fill-rule="evenodd" class="s0" d="m732.2 313.3v65.6h-5.2v-14.7c-1.5 2.6-3.4 5-5.6 7.1-2.1 2.1-4.6 3.9-7.2 5.4-2.6 1.5-5.4 2.6-8.4 3.4-2.9 0.8-5.9 1.2-8.9 1.2-12.6 0-24.3-6.6-30.7-17.4-6.4-10.9-6.5-24.3-0.3-35.3 6.2-10.9 17.8-17.8 30.4-17.9 12.6-0.1 24.3 6.5 30.7 17.3v-14.7zm-5.2 32.7c0-12.2-7.4-23.2-18.7-27.9-11.3-4.6-24.3-2-32.9 6.7-8.7 8.7-11.2 21.7-6.5 32.9 4.7 11.3 15.8 18.7 28 18.6 4 0 7.9-0.8 11.5-2.3 3.7-1.6 7-3.8 9.8-6.6 2.8-2.8 5-6.2 6.5-9.8 1.6-3.7 2.3-7.6 2.3-11.6z"/>
			<path id="Layer" class="s0" d="m769.5 314h-12.7v65.4h-5.2v-65.4h-12.1v-5h12.1v-40.2h5.2v40.3h12.7z"/>
			<path id="Layer" fill-rule="evenodd" class="s0" d="m849.2 345.6q0 0.3 0 0.7 0 0.3 0 0.6-0.1 0.3-0.1 0.6 0 0.4-0.1 0.7h-65.4c0.5 6.1 2.9 12 6.9 16.7 3.9 4.8 9.2 8.2 15.2 9.9 5.9 1.7 12.2 1.5 18-0.5 5.9-2 11-5.7 14.6-10.7l4.5 2.2q-2.5 3.5-5.6 6.3-3.2 2.9-7 4.8-3.8 2-7.9 3-4.1 1-8.4 1c-14 0-26.8-8.3-32.4-21.2-5.7-12.8-3.1-27.8 6.5-38.1 9.6-10.3 24.3-13.9 37.6-9.2 13.3 4.7 22.4 16.8 23.4 30.8q0.1 0.3 0.1 0.6 0 0.3 0.1 0.6 0 0.3 0 0.6 0 0.3 0 0.6zm-5.1-2.4c-0.7-7.6-4.1-14.7-9.7-19.9-5.6-5.1-12.9-8-20.6-8-7.6 0-14.9 2.9-20.5 8-5.7 5.2-9.1 12.3-9.7 19.9z"/>
			<path id="Layer" class="s1" d="m184.1 144.6h39.4v118.3h-39.4z"/>
			<path id="Layer" class="s2" d="m136.6 0l-44.6 80.4-44.2-80.2h-47.8v183.9h39.4v-122.2l33.1 56.4h39.6l32.5-56.9v56.9h39.4l0.1-118.3h-47.5z"/>
			<path id="Layer" class="s3" d="m407.6 0h-184.1v39.4h144.6v144.7h39.4v-184.1z"/>
			<path id="Layer" class="s4" d="m0 407.6l184.1-0.1v-39.4h-144.7v-144.6l-39.3 0.1-0.1 183.9z"/>
			<path id="Layer" class="s5" d="m407.6 368.1l-67-0.1c-14 0.2-27.5-5.2-37.5-15.1-10-9.8-15.7-23.3-15.7-37.3 0-14 5.7-27.5 15.7-37.3 10-9.9 23.5-15.3 37.5-15.1h67v-39.5h-67.8c-12 0.1-23.8 2.5-34.9 7.1-11 4.6-21 11.4-29.5 19.8-8.5 8.5-15.2 18.5-19.8 29.6-4.6 11-7 22.8-7.1 34.8q0 0.3 0 0.7 0 0.3 0 0.6c0.1 12 2.5 23.8 7.1 34.8 4.6 11.1 11.4 21.1 19.8 29.6 8.5 8.4 18.5 15.1 29.5 19.8 11.1 4.6 22.9 7 34.9 7.1h0.6 0.7 66.5z"/>
		</g>
	</g>
</svg>